P1 7 8 ## This is a smiley face
0 0 0 0 0 0 0
0 1 0 0 0 1 0
0 1 0 0 0 1 0
0 1 0 0 0 1 0
0 0 0 0 0 0 0
1 0 0 0 0 0 1
0 1 0 0 0 1 0
0 0 1 1 1 0 0
